<svg xmlns="http://www.w3.org/2000/svg" xmlns:xlink="http://www.w3.org/1999/xlink" width="1080" zoomAndPan="magnify" viewBox="0 0 810 809.999993" height="1080" preserveAspectRatio="xMidYMid meet" version="1.0"><defs><clipPath id="id1"><path d="M 736 393 L 758.714844 393 L 758.714844 487.800781 L 736 487.800781 Z M 736 393 " clip-rule="nonzero"/></clipPath></defs><path fill="#fed645" d="M 605.667969 447.183594 C 583.554688 462.460938 484.144531 527.519531 466.886719 538.660156 C 449.632812 549.800781 386.351562 589.519531 381.5 591.316406 C 376.644531 593.113281 373.046875 589.285156 374.488281 585.03125 C 378.800781 572.269531 394.082031 541.355469 404.871094 524.28125 C 415.65625 507.210938 436.507812 475.21875 458.800781 451.679688 C 481.089844 428.136719 516.863281 402.074219 531.421875 393.449219 C 545.988281 384.824219 574.207031 368.648438 589.308594 361.636719 C 604.40625 354.628906 632.632812 343.488281 645.035156 341.152344 C 657.4375 338.8125 658.878906 341.332031 662.296875 345.824219 C 665.710938 350.320312 676.136719 365.953125 687.28125 389.496094 C 682.25 393.449219 627.777344 431.910156 605.667969 447.183594 Z M 721.167969 350.765625 C 716.855469 348.207031 698.652344 334.054688 691.371094 327.582031 C 684.089844 321.113281 674.476562 312.796875 668.222656 307.726562 C 661.578125 309.519531 595.957031 339.355469 565.578125 356.789062 C 535.203125 374.21875 502.304688 396.867188 479.652344 416.632812 C 467.4375 427.296875 453.863281 441.71875 441.101562 456.96875 C 433.527344 466.027344 426.234375 475.375 419.683594 484.40625 C 419.367188 484.847656 419.046875 485.285156 418.730469 485.726562 C 418.238281 486.40625 417.753906 487.085938 417.273438 487.761719 C 416.988281 488.164062 416.699219 488.5625 416.421875 488.96875 C 414.722656 491.367188 413.085938 493.738281 411.515625 496.070312 C 393.367188 523.023438 369.8125 562.742188 359.207031 576.402344 C 348.605469 590.054688 331.34375 599.945312 311.933594 613.0625 C 292.515625 626.183594 255.660156 645.589844 247.03125 650.265625 C 238.402344 654.941406 204.789062 676.078125 201.554688 679.582031 C 203.777344 679.175781 208.695312 679.445312 211.796875 679.917969 C 217.128906 674.660156 224.921875 671.226562 231.214844 670.007812 C 237.144531 668.867188 251.707031 669.070312 259.460938 669 C 267.210938 668.929688 273.074219 668.597656 279.210938 667.652344 C 285.347656 666.707031 290.742188 665.496094 294.175781 666.035156 C 296.238281 666.359375 298.003906 666.757812 298.902344 667.886719 C 347.273438 640.6875 671.15625 440.691406 733.867188 387.144531 C 731.605469 382.683594 729.695312 377.34375 731.144531 372.871094 C 732.226562 369.539062 734.925781 366.394531 736.761719 363.542969 C 733.035156 358.382812 729.226562 353.898438 727.117188 351.558594 C 725.703125 352.328125 723.753906 352.300781 721.167969 350.765625 " fill-opacity="1" fill-rule="nonzero"/><path fill="#ffa81c" d="M 737.34375 350.945312 C 733.035156 344.65625 725.484375 335.9375 722.113281 332.707031 C 728.445312 341.871094 730.46875 346.585938 729.257812 349.148438 C 728.769531 350.171875 728.0625 351.042969 727.117188 351.558594 C 729.226562 353.898438 733.035156 358.382812 736.761719 363.542969 C 737.679688 362.125 738.382812 360.78125 738.5625 359.527344 C 739.097656 355.753906 737.796875 352.832031 737.34375 350.945312 " fill-opacity="1" fill-rule="nonzero"/><path fill="#3d201c" d="M 400.957031 682.34375 C 397.503906 661.628906 378.976562 655.5 357.757812 665.398438 C 362.507812 672.542969 383.152344 703.453125 386.171875 705.4375 C 389.585938 707.6875 392.554688 708.492188 396.105469 707.953125 C 399.746094 701.484375 402.441406 691.242188 400.957031 682.34375 " fill-opacity="1" fill-rule="nonzero"/><path fill="#423eaf" d="M 390.554688 698.292969 C 390.554688 724.613281 372.070312 756.621094 349.273438 769.777344 C 326.472656 782.9375 307.988281 772.269531 307.988281 745.953125 C 307.988281 719.632812 326.46875 687.625 349.269531 674.46875 C 372.070312 661.304688 390.554688 671.976562 390.554688 698.292969 " fill-opacity="1" fill-rule="nonzero"/><path fill="#312e82" d="M 337.859375 694.882812 C 321.671875 711.496094 313.664062 737.167969 319.96875 752.214844 C 326.269531 767.261719 344.5 765.984375 360.6875 749.363281 C 376.871094 732.75 384.882812 707.078125 378.578125 692.03125 C 372.277344 676.984375 354.046875 678.261719 337.859375 694.882812 " fill-opacity="1" fill-rule="nonzero"/><path fill="#6460c7" d="M 339.019531 697.652344 C 324.480469 712.578125 317.289062 735.636719 322.949219 749.152344 C 328.613281 762.664062 344.988281 761.519531 359.527344 746.59375 C 374.0625 731.667969 381.257812 708.609375 375.59375 695.09375 C 369.933594 681.582031 353.558594 682.726562 339.019531 697.652344 " fill-opacity="1" fill-rule="nonzero"/><path fill="#cdcde6" d="M 334.210938 727.375 C 339.605469 725.652344 343.609375 716.167969 340.300781 713.003906 C 337.789062 710.554688 334.996094 708.585938 332.242188 707.164062 C 327.398438 714.351562 324.046875 722.394531 322.574219 729.980469 C 326.089844 729.59375 330.082031 728.746094 334.210938 727.375 Z M 334.742188 757.648438 C 337.195312 752.878906 339.636719 747.554688 341.757812 742.089844 C 344.566406 734.988281 339.90625 731.046875 334.691406 736.121094 C 330.671875 740.011719 326.820312 744.21875 323.46875 748.269531 C 325.707031 753.921875 329.730469 756.953125 334.742188 757.648438 Z M 343.964844 732.535156 C 344.585938 731.589844 344.675781 730.484375 344.167969 730.058594 C 343.660156 729.640625 342.75 730.058594 342.128906 731.003906 C 341.507812 731.945312 341.417969 733.050781 341.925781 733.476562 C 342.433594 733.902344 343.34375 733.476562 343.964844 732.535156 Z M 347.585938 705.476562 C 348.101562 711.488281 355.230469 709.640625 358.414062 702.558594 C 360.816406 697.265625 362.882812 691.960938 364.5 687.121094 C 359.507812 686.164062 353.488281 687.703125 347.367188 691.71875 C 347.109375 696.199219 347.152344 700.941406 347.585938 705.476562 Z M 351.789062 710.054688 C 351.015625 710.265625 350.222656 711.261719 350.019531 712.273438 C 349.816406 713.28125 350.277344 713.929688 351.050781 713.71875 C 351.828125 713.507812 352.621094 712.511719 352.824219 711.5 C 353.027344 710.492188 352.5625 709.839844 351.789062 710.054688 Z M 351.78125 727.976562 C 351.035156 728.742188 350.664062 729.921875 350.957031 730.617188 C 351.25 731.3125 352.089844 731.253906 352.832031 730.488281 C 353.578125 729.722656 353.949219 728.539062 353.65625 727.847656 C 353.367188 727.152344 352.527344 727.210938 351.78125 727.976562 Z M 358.933594 716.011719 C 358.886719 715.117188 358.199219 714.804688 357.398438 715.320312 C 356.601562 715.832031 355.988281 716.976562 356.035156 717.875 C 356.082031 718.769531 356.765625 719.078125 357.566406 718.566406 C 358.367188 718.050781 358.976562 716.90625 358.933594 716.011719 Z M 350.554688 753.273438 C 356.65625 749.414062 362.328125 743.574219 367.042969 736.226562 C 365.050781 733.683594 362.601562 731.257812 359.800781 729.28125 C 356.164062 726.617188 349.25 733.628906 349.34375 739.972656 C 349.390625 744.832031 349.84375 749.367188 350.554688 753.273438 Z M 375.738281 715.425781 C 377.292969 708.011719 377.105469 701.070312 374.679688 695.636719 C 371.066406 698.78125 367.175781 702.535156 363.402344 706.652344 C 358.355469 712.085938 358.707031 720.410156 364.003906 719.226562 C 367.984375 718.363281 372.011719 717.015625 375.738281 715.425781 Z M 343.28125 719.1875 C 342.605469 719.074219 341.710938 719.820312 341.28125 720.847656 C 340.847656 721.875 341.039062 722.800781 341.714844 722.90625 C 342.386719 723.019531 343.285156 722.273438 343.71875 721.246094 C 344.152344 720.222656 343.957031 719.300781 343.28125 719.1875 Z M 320.554688 730.175781 C 322.195312 722.257812 325.667969 713.902344 330.660156 706.382812 C 335.339844 699.121094 341.21875 693.011719 347.554688 688.90625 C 353.910156 685.0625 360.160156 683.453125 365.398438 684.359375 C 370.566406 684.871094 374.691406 688.027344 377.058594 693.613281 C 379.164062 699.394531 379.460938 706.609375 377.871094 714.488281 C 376.511719 722.183594 373.117188 730.394531 368.25 737.816406 C 363.371094 745.074219 357.460938 751.289062 350.972656 755.476562 C 344.675781 759.582031 338.363281 761.152344 333.332031 760.351562 C 328.007812 759.507812 323.894531 756.183594 321.578125 750.574219 C 319.265625 744.996094 319.070312 737.632812 320.554688 730.175781 " fill-opacity="1" fill-rule="nonzero"/><path fill="#dbe5ff" d="M 354.949219 716.34375 C 356.140625 719.191406 354.625 724.042969 351.566406 727.183594 C 348.503906 730.328125 345.058594 730.566406 343.867188 727.722656 C 342.675781 724.878906 344.1875 720.027344 347.25 716.886719 C 350.308594 713.746094 353.753906 713.503906 354.949219 716.34375 " fill-opacity="1" fill-rule="nonzero"/><path fill="#1f1c63" d="M 307.988281 745.953125 C 307.988281 719.632812 326.46875 687.625 349.269531 674.46875 C 367.003906 664.230469 382.125 668.414062 387.96875 683.152344 C 385.90625 675.308594 380.511719 670.085938 375.90625 666.78125 C 373.0625 664.742188 353.679688 654.003906 353.679688 654.003906 L 315.886719 684.113281 L 293.617188 758.800781 C 293.617188 758.800781 312.847656 769.882812 314.894531 771.035156 C 317.738281 772.636719 323.265625 774.4375 325.554688 774.820312 C 314.933594 772.332031 307.988281 762.078125 307.988281 745.953125 " fill-opacity="1" fill-rule="nonzero"/><path fill="#fed645" d="M 352.28125 636.070312 C 327.058594 651.414062 308.046875 662.742188 298.902344 667.886719 C 299.503906 668.632812 299.71875 669.699219 299.371094 671.292969 C 298.492188 675.269531 295.929688 682.4375 292.152344 687.738281 C 288.378906 693.035156 283.886719 696.902344 274.722656 701.484375 C 265.550781 706.066406 239.664062 707.953125 229.238281 707.054688 C 218.992188 706.199219 197.851562 701.957031 175.53125 693.9375 C 153.011719 685.847656 123.277344 672.257812 99.894531 652.960938 C 87.757812 642.945312 68.808594 626.371094 62.898438 611.78125 C 59.769531 604.050781 59.910156 593.4375 61.78125 588.261719 C 59.433594 592.378906 57.242188 600.167969 56.671875 603.007812 C 56.398438 603.546875 55.546875 612.773438 56.570312 618.816406 C 57.480469 624.222656 61.851562 636.964844 63.652344 639.664062 C 77.167969 657.347656 109.039062 679.667969 119.757812 685.667969 C 133.164062 693.175781 178.378906 712.9375 193.382812 715.289062 C 194.277344 715.402344 201.613281 716.109375 211.332031 716.683594 C 229.167969 717.589844 241.929688 717.554688 258.988281 712.808594 C 272.46875 709.035156 300.785156 694.300781 312.285156 687.46875 C 297.066406 707.703125 292.964844 748.5 260.15625 760.96875 C 266.746094 760.371094 287.457031 755.277344 296.355469 752.867188 C 298.265625 744.6875 300.40625 735.007812 301.996094 729.789062 C 304.828125 720.488281 316.289062 699.464844 324.78125 688.003906 C 333.277344 676.546875 340.019531 669.808594 359.164062 660.507812 C 364.65625 657.839844 369.671875 656.515625 374.15625 656.097656 C 374.058594 647.835938 366.089844 637.246094 352.28125 636.070312 " fill-opacity="1" fill-rule="nonzero"/><path fill="#3d201c" d="M 744.894531 480.703125 C 744.675781 472.886719 740.726562 465.996094 733.617188 462.4375 C 726.347656 458.792969 715.777344 458.636719 702.519531 464.535156 C 709.207031 470.066406 732.941406 489.828125 736.71875 494.988281 C 738.515625 494.902344 739.59375 494.902344 742.109375 493.101562 C 745.4375 488.523438 744.988281 483.84375 744.894531 480.703125 " fill-opacity="1" fill-rule="nonzero"/><path fill="#423eaf" d="M 738.320312 497.503906 C 738.320312 523.824219 719.835938 555.828125 697.035156 568.988281 C 674.234375 582.144531 655.75 571.480469 655.75 545.15625 C 655.75 518.839844 674.234375 486.835938 697.035156 473.675781 C 719.835938 460.515625 738.320312 471.183594 738.320312 497.503906 " fill-opacity="1" fill-rule="nonzero"/><path fill="#312e82" d="M 685.621094 494.089844 C 669.433594 510.707031 661.425781 536.378906 667.726562 551.421875 C 674.035156 566.46875 692.265625 565.195312 708.445312 548.574219 C 724.632812 531.953125 732.640625 506.285156 726.339844 491.242188 C 720.035156 476.195312 701.804688 477.46875 685.621094 494.089844 " fill-opacity="1" fill-rule="nonzero"/><path fill="#6460c7" d="M 686.78125 496.863281 C 672.242188 511.789062 665.046875 534.84375 670.710938 548.359375 C 676.371094 561.875 692.746094 560.730469 707.285156 545.800781 C 721.824219 530.875 729.015625 507.816406 723.355469 494.304688 C 717.695312 480.789062 701.316406 481.933594 686.78125 496.863281 " fill-opacity="1" fill-rule="nonzero"/><path fill="#cdcde6" d="M 681.972656 526.585938 C 687.367188 524.863281 691.371094 515.375 688.058594 512.210938 C 685.550781 509.765625 682.757812 507.796875 680.003906 506.375 C 675.15625 513.558594 671.8125 521.601562 670.335938 529.1875 C 673.855469 528.804688 677.847656 527.953125 681.972656 526.585938 Z M 682.503906 556.855469 C 684.960938 552.085938 687.398438 546.761719 689.519531 541.296875 C 692.328125 534.199219 687.667969 530.257812 682.453125 535.332031 C 678.429688 539.222656 674.582031 543.425781 671.226562 547.480469 C 673.472656 553.125 677.488281 556.164062 682.503906 556.855469 Z M 691.722656 531.742188 C 692.34375 530.796875 692.433594 529.691406 691.929688 529.269531 C 691.421875 528.847656 690.507812 529.265625 689.886719 530.210938 C 689.273438 531.15625 689.179688 532.261719 689.683594 532.683594 C 690.191406 533.109375 691.105469 532.6875 691.722656 531.742188 Z M 695.347656 504.6875 C 695.863281 510.695312 702.992188 508.851562 706.179688 501.765625 C 708.582031 496.472656 710.640625 491.167969 712.257812 486.332031 C 707.265625 485.371094 701.25 486.910156 695.128906 490.925781 C 694.871094 495.402344 694.914062 500.152344 695.347656 504.6875 Z M 699.550781 509.265625 C 698.777344 509.476562 697.984375 510.46875 697.78125 511.476562 C 697.574219 512.488281 698.042969 513.136719 698.816406 512.925781 C 699.589844 512.714844 700.378906 511.722656 700.585938 510.710938 C 700.789062 509.703125 700.328125 509.050781 699.550781 509.265625 Z M 699.542969 527.1875 C 698.792969 527.953125 698.429688 529.132812 698.71875 529.828125 C 699.007812 530.523438 699.847656 530.460938 700.597656 529.695312 C 701.34375 528.929688 701.710938 527.75 701.421875 527.054688 C 701.128906 526.359375 700.289062 526.421875 699.542969 527.1875 Z M 706.695312 515.222656 C 706.648438 514.324219 705.960938 514.015625 705.164062 514.527344 C 704.363281 515.042969 703.753906 516.1875 703.796875 517.082031 C 703.84375 517.980469 704.53125 518.289062 705.328125 517.777344 C 706.128906 517.261719 706.742188 516.117188 706.695312 515.222656 Z M 698.316406 552.480469 C 704.417969 548.625 710.089844 542.785156 714.808594 535.433594 C 712.8125 532.894531 710.363281 530.46875 707.5625 528.488281 C 703.921875 525.824219 697.007812 532.839844 697.105469 539.179688 C 697.152344 544.042969 697.609375 548.574219 698.316406 552.480469 Z M 723.496094 514.636719 C 725.054688 507.222656 724.863281 500.28125 722.445312 494.847656 C 718.824219 497.988281 714.941406 501.746094 711.164062 505.859375 C 706.121094 511.296875 706.464844 519.617188 711.765625 518.4375 C 715.742188 517.574219 719.773438 516.226562 723.496094 514.636719 Z M 691.042969 518.398438 C 690.371094 518.285156 689.472656 519.03125 689.039062 520.054688 C 688.605469 521.082031 688.800781 522.003906 689.476562 522.117188 C 690.148438 522.226562 691.042969 521.484375 691.480469 520.457031 C 691.910156 519.429688 691.714844 518.507812 691.042969 518.398438 Z M 668.320312 529.386719 C 669.957031 521.464844 673.429688 513.109375 678.425781 505.59375 C 683.101562 498.328125 688.976562 492.222656 695.316406 488.117188 C 701.671875 484.269531 707.921875 482.660156 713.164062 483.570312 C 718.328125 484.078125 722.453125 487.234375 724.820312 492.820312 C 726.925781 498.605469 727.222656 505.820312 725.632812 513.699219 C 724.277344 521.394531 720.875 529.601562 716.011719 537.023438 C 711.132812 544.28125 705.222656 550.496094 698.734375 554.683594 C 692.4375 558.789062 686.125 560.363281 681.097656 559.558594 C 675.769531 558.714844 671.652344 555.390625 669.34375 549.785156 C 667.027344 544.199219 666.828125 536.84375 668.320312 529.386719 " fill-opacity="1" fill-rule="nonzero"/><path fill="#dbe5ff" d="M 702.707031 515.554688 C 703.898438 518.402344 702.386719 523.253906 699.324219 526.394531 C 696.265625 529.539062 692.820312 529.773438 691.628906 526.933594 C 690.4375 524.085938 691.953125 519.234375 695.011719 516.09375 C 698.070312 512.953125 701.515625 512.714844 702.707031 515.554688 " fill-opacity="1" fill-rule="nonzero"/><path fill="#1f1c63" d="M 655.75 545.15625 C 655.75 518.839844 674.234375 486.835938 697.035156 473.675781 C 714.765625 463.441406 729.882812 467.621094 735.730469 482.363281 C 733.671875 474.515625 728.277344 469.296875 723.667969 465.988281 C 720.820312 463.949219 701.441406 453.214844 701.441406 453.214844 L 663.644531 483.320312 L 641.382812 558.011719 C 641.382812 558.011719 660.609375 569.09375 662.660156 570.246094 C 665.496094 571.84375 671.027344 573.648438 673.3125 574.03125 C 662.691406 571.539062 655.75 561.285156 655.75 545.15625 " fill-opacity="1" fill-rule="nonzero"/><path fill="#ffa81c" d="M 747.777344 399.789062 C 746.734375 401.113281 745.734375 401.589844 744.628906 401.445312 C 742.46875 401.175781 737.210938 393.363281 734.652344 388.644531 C 734.386719 388.15625 734.125 387.652344 733.867188 387.144531 C 683.015625 430.566406 460.441406 570.277344 352.28125 636.070312 C 366.089844 637.246094 374.058594 647.835938 374.15625 656.097656 C 385.3125 655.050781 393.203125 659.617188 397.050781 663.203125 C 402.441406 668.234375 405.316406 675.964844 405.046875 682.789062 C 404.777344 689.621094 405.40625 689.984375 407.386719 688.90625 C 412.394531 686.171875 432.738281 673.988281 439.925781 669.496094 C 447.113281 665 523.335938 619.355469 533.761719 612.707031 C 544.183594 606.054688 598.476562 572.628906 606.566406 567.058594 C 614.65625 561.480469 640.40625 546.613281 642.296875 543.785156 C 644.183594 540.953125 651.460938 521.8125 656.320312 511.972656 C 661.171875 502.132812 669.664062 489.058594 682.609375 475.582031 C 695.550781 462.101562 706.878906 458.597656 714.289062 456.167969 C 719.992188 454.304688 729.113281 454.355469 736.214844 457.84375 C 741.789062 446.664062 750.683594 421.664062 747.777344 399.789062 " fill-opacity="1" fill-rule="nonzero"/><g clip-path="url(#id1)"><path fill="#e68d00" d="M 748.234375 487.292969 C 749.933594 475.46875 746.863281 463.054688 736.214844 457.84375 C 741.789062 446.664062 750.683594 421.664062 747.777344 399.789062 C 748.761719 398.535156 749.78125 396.515625 750.964844 393.496094 C 751.234375 397 751.367188 403.46875 751.101562 407.375 C 752.988281 410.207031 757.300781 414.070312 757.972656 422.609375 C 759.425781 441.023438 759.871094 471.90625 748.234375 487.292969 " fill-opacity="1" fill-rule="nonzero"/></g><path fill="#e67300" d="M 748.234375 399.152344 C 748.078125 399.382812 747.929688 399.597656 747.777344 399.789062 C 747.617188 399.996094 747.464844 400.167969 747.304688 400.332031 C 750.476562 425.8125 737.640625 455.746094 733.121094 462.199219 C 733.289062 462.277344 733.453125 462.351562 733.617188 462.4375 C 733.777344 462.519531 733.929688 462.609375 734.085938 462.695312 C 738.835938 455.71875 751.898438 424.953125 748.234375 399.152344 " fill-opacity="1" fill-rule="nonzero"/><path fill="#e68d00" d="M 748.234375 487.292969 C 746.476562 489.617188 744.449219 491.585938 742.109375 493.101562 C 745.4375 488.523438 744.988281 483.84375 744.894531 480.703125 C 744.675781 472.886719 740.726562 465.996094 733.617188 462.4375 C 725.964844 458.601562 714.65625 458.625 700.40625 465.515625 C 671.136719 479.667969 648.800781 528.945312 641.484375 560.765625 C 634.609375 565.347656 562.074219 610.636719 531.066406 629.507812 C 500.054688 648.378906 414.847656 697.039062 396.105469 707.953125 C 399.746094 701.484375 402.441406 691.242188 400.957031 682.34375 C 395.582031 650.109375 353.726562 653.191406 321.996094 696.992188 C 314.445312 707.414062 303.839844 728.078125 300.066406 751.804688 C 299.371094 755.128906 298.019531 760.996094 296.671875 762.347656 C 296.328125 762.691406 295.265625 763.261719 293.566406 763.972656 C 295.707031 756.804688 299.53125 737.867188 301.996094 729.789062 C 304.828125 720.488281 316.289062 699.464844 324.78125 688.003906 C 333.277344 676.546875 340.019531 669.808594 359.164062 660.507812 C 378.308594 651.207031 391.65625 658.171875 397.050781 663.203125 C 402.441406 668.234375 405.316406 675.964844 405.046875 682.789062 C 404.777344 689.621094 405.40625 689.984375 407.386719 688.90625 C 412.394531 686.171875 432.738281 673.988281 439.925781 669.496094 C 447.113281 665 523.335938 619.355469 533.761719 612.707031 C 544.183594 606.054688 598.476562 572.628906 606.566406 567.058594 C 614.65625 561.480469 640.40625 546.613281 642.296875 543.785156 C 644.183594 540.953125 651.460938 521.8125 656.320312 511.972656 C 661.171875 502.132812 669.664062 489.058594 682.609375 475.582031 C 695.550781 462.101562 706.878906 458.597656 714.289062 456.167969 C 719.992188 454.304688 729.113281 454.355469 736.214844 457.84375 C 746.863281 463.054688 749.933594 475.46875 748.234375 487.292969 " fill-opacity="1" fill-rule="nonzero"/><path fill="#1f1c63" d="M 256.15625 750.785156 C 253.550781 754.585938 251.058594 758.304688 240.714844 761.152344 C 231.574219 763.664062 215.574219 763.757812 201.644531 762.136719 C 187.710938 760.523438 169.460938 754.953125 153.191406 748.214844 C 136.925781 741.472656 114.183594 731.769531 91.625 712.628906 C 69.0625 693.488281 65.621094 687.996094 60.703125 674.886719 C 57.734375 666.976562 57.289062 659.699219 57.109375 658.621094 C 55.671875 656.738281 54.863281 655.476562 54.230469 653.949219 C 53.570312 650.710938 53.402344 642.726562 53.984375 639.082031 C 56.441406 648.304688 61.683594 662.929688 67.898438 670.125 C 73.378906 676.054688 86.414062 688.992188 115.359375 706.609375 C 144.203125 724.167969 171.355469 733.144531 185.507812 737.300781 C 191.398438 739.046875 212.066406 742.996094 231.816406 743.0625 C 240.207031 743.097656 248.394531 742.363281 253.824219 741.933594 C 255.996094 742.058594 257.480469 742.316406 258.28125 743.0625 C 259.558594 744.28125 259.019531 746.605469 256.15625 750.785156 " fill-opacity="1" fill-rule="nonzero"/><path fill="#ffa81c" d="M 312.285156 687.46875 C 298.191406 706.203125 292.804688 744.890625 265.667969 758.464844 C 264.003906 759.371094 261.742188 760.367188 260.15625 760.96875 C 253.464844 763.128906 243.234375 766.441406 232.378906 766.640625 C 239.632812 766.34375 244.863281 765.214844 250.089844 762.277344 C 258.242188 757.691406 262.289062 748.527344 262.558594 746.367188 C 262.828125 744.210938 262.492188 741.917969 259.734375 741.652344 C 258.777344 741.5625 256.6875 741.707031 253.824219 741.933594 C 248.394531 742.363281 240.207031 743.097656 231.816406 743.0625 C 212.066406 742.996094 191.398438 739.046875 185.640625 737.339844 C 188.914062 730.917969 191.640625 722.445312 193.382812 715.289062 C 194.097656 715.375 204.003906 716.378906 216.304688 716.917969 C 232.484375 717.507812 243.804688 717.035156 258.988281 712.808594 C 272.46875 709.035156 300.785156 694.300781 312.285156 687.46875 " fill-opacity="1" fill-rule="nonzero"/><path fill="#e68d00" d="M 193.382812 715.289062 C 191.640625 722.445312 188.914062 730.917969 185.507812 737.300781 C 171.355469 733.144531 144.203125 724.167969 115.359375 706.609375 C 86.414062 688.992188 73.378906 676.054688 67.898438 670.125 C 67.796875 670.003906 67.699219 669.878906 67.597656 669.761719 C 65.789062 661.453125 63.789062 648.011719 63.652344 639.664062 C 77.167969 657.347656 109.039062 679.667969 119.757812 685.667969 C 133.164062 693.175781 178.378906 712.9375 193.382812 715.289062 " fill-opacity="1" fill-rule="nonzero"/><path fill="#ffa81c" d="M 53.695312 637.957031 C 53.203125 635.964844 54.460938 611.890625 56.636719 603.15625 C 56.253906 605.066406 55.632812 613.289062 56.570312 618.816406 C 57.484375 624.222656 61.851562 636.964844 63.652344 639.664062 C 63.789062 648.011719 65.789062 661.453125 67.597656 669.761719 C 61.277344 661.964844 56.15625 647.644531 53.695312 637.957031 " fill-opacity="1" fill-rule="nonzero"/><path fill="#fed645" d="M 262.558594 746.367188 C 262.289062 748.527344 258.242188 757.691406 250.089844 762.277344 C 241.972656 766.839844 233.820312 767.0625 217.9375 766.515625 C 202.089844 765.980469 187.960938 763.242188 172.203125 757.917969 C 156.117188 752.476562 136.296875 743.941406 120.050781 734.777344 C 103.804688 725.613281 93.089844 716.515625 86.207031 711.054688 C 79.335938 705.59375 71.3125 699.058594 63.492188 687.558594 C 55.324219 675.542969 53.148438 666.046875 54.230469 653.949219 C 54.863281 655.476562 55.671875 656.738281 57.109375 658.621094 C 57.289062 659.699219 57.734375 666.976562 60.703125 674.886719 C 65.621094 687.996094 69.0625 693.488281 91.625 712.628906 C 114.183594 731.769531 136.925781 741.472656 153.191406 748.214844 C 169.460938 754.953125 187.710938 760.523438 201.644531 762.136719 C 215.574219 763.757812 231.574219 763.664062 240.714844 761.152344 C 251.058594 758.304688 253.550781 754.585938 256.15625 750.785156 C 259.019531 746.605469 259.558594 744.28125 258.28125 743.0625 C 257.480469 742.316406 255.996094 742.058594 253.824219 741.933594 C 256.6875 741.707031 258.777344 741.5625 259.734375 741.652344 C 262.492188 741.917969 262.828125 744.210938 262.558594 746.367188 " fill-opacity="1" fill-rule="nonzero"/><path fill="#e68d00" d="M 296.355469 752.867188 C 295.316406 757.34375 294.347656 761.371094 293.566406 763.972656 C 282.628906 768.566406 245.378906 778.886719 204.382812 770.089844 C 160.484375 760.664062 93.546875 729.273438 65.429688 692.925781 C 56.292969 681.105469 51.195312 668.027344 54.230469 653.949219 C 53.148438 666.046875 55.324219 675.542969 63.492188 687.558594 C 71.3125 699.058594 79.335938 705.59375 86.207031 711.054688 C 93.089844 716.515625 103.804688 725.613281 120.050781 734.777344 C 136.296875 743.941406 156.117188 752.476562 172.203125 757.917969 C 187.960938 763.242188 202.089844 765.980469 217.9375 766.515625 C 236.367188 767.148438 242.546875 766.644531 260.15625 760.96875 C 266.746094 760.371094 287.457031 755.277344 296.355469 752.867188 " fill-opacity="1" fill-rule="nonzero"/><path fill="#ffa81c" d="M 441.105469 456.972656 C 453.867188 441.71875 467.441406 427.292969 479.652344 416.632812 C 502.304688 396.867188 535.203125 374.21875 565.578125 356.789062 C 595.957031 339.355469 661.578125 309.519531 668.222656 307.726562 C 626.300781 276.472656 576.046875 242.71875 526.570312 225.054688 C 443.164062 256.761719 309.175781 335.304688 279.210938 361.820312 C 289.734375 376.8125 383.695312 433.128906 441.105469 456.972656 " fill-opacity="1" fill-rule="nonzero"/><path fill="#ffb82b" d="M 685.511719 300.238281 C 680.582031 302.050781 673.117188 305.078125 668.222656 307.726562 C 672.53125 311.222656 678.433594 316.253906 684.070312 321.164062 C 686.339844 316.074219 686.816406 307.683594 685.574219 300.492188 L 685.511719 300.238281 " fill-opacity="1" fill-rule="nonzero"/><path fill="#e68d00" d="M 635.015625 253.449219 C 596.320312 229.007812 559.019531 221.371094 553.359375 220.109375 C 547.691406 218.855469 543.199219 219.574219 539.605469 220.472656 C 536.011719 221.371094 529.445312 223.882812 526.570312 225.054688 C 576.046875 242.71875 626.300781 276.472656 668.222656 307.726562 C 673.117188 305.078125 680.582031 302.050781 685.511719 300.238281 C 683.800781 292.238281 663.90625 271.699219 635.015625 253.449219 " fill-opacity="1" fill-rule="nonzero"/><path fill="#e67300" d="M 738.5625 359.527344 C 738.019531 363.300781 732.761719 367.882812 731.144531 372.871094 C 729.527344 377.855469 732.089844 383.925781 734.652344 388.644531 C 737.210938 393.363281 742.46875 401.175781 744.628906 401.445312 C 745.734375 401.589844 746.734375 401.113281 747.777344 399.792969 C 748.761719 398.535156 749.78125 396.511719 750.964844 393.496094 C 751.378906 389.445312 745.082031 361.882812 737.34375 350.945312 C 737.796875 352.832031 739.097656 355.753906 738.5625 359.527344 " fill-opacity="1" fill-rule="nonzero"/><path fill="#ffa81c" d="M 141.535156 495.722656 C 119.851562 522.878906 90.828125 557.664062 80.363281 609.964844 C 79.816406 609.378906 79.261719 608.796875 78.726562 608.210938 C 80.210938 598.777344 82.277344 588.441406 81.019531 577.886719 C 79.90625 568.574219 79.128906 552.949219 86.816406 543.515625 C 99.132812 531.667969 127.460938 509.007812 141.535156 495.722656 " fill-opacity="1" fill-rule="nonzero"/><path fill="#ffb82b" d="M 436.914062 455.195312 C 429.195312 465.925781 402.953125 502.953125 393.003906 518.351562 C 381.855469 535.605469 356.332031 576.761719 348.78125 581.972656 C 341.230469 587.183594 327.730469 589.527344 304.378906 585.03125 C 231.855469 571.050781 182.441406 528.601562 171.890625 512.78125 C 161.105469 496.605469 158.679688 487.980469 161.105469 481.378906 C 163.53125 474.773438 175.53125 461.429688 181.460938 454.957031 C 216.566406 416.671875 267.769531 374.28125 280.921875 363.863281 C 280.226562 363.121094 279.640625 362.433594 279.210938 361.820312 C 221.3125 402.40625 148.261719 488.820312 147.082031 490.136719 C 145.6875 491.699219 143.792969 493.59375 141.535156 495.722656 C 119.851562 522.878906 90.828125 557.664062 80.363281 609.964844 C 114.382812 646.429688 167.558594 671.9375 201.554688 679.582031 C 204.789062 676.078125 238.402344 654.941406 247.03125 650.265625 C 255.660156 645.589844 292.515625 626.183594 311.933594 613.0625 C 331.34375 599.945312 348.605469 590.054688 359.207031 576.402344 C 369.8125 562.742188 393.367188 523.023438 411.515625 496.070312 C 420.496094 482.742188 430.871094 469.203125 441.101562 456.96875 C 439.730469 456.398438 438.332031 455.804688 436.914062 455.195312 " fill-opacity="1" fill-rule="nonzero"/><path fill="#ffffff" d="M 299.371094 671.292969 C 298.492188 675.269531 295.929688 682.4375 292.152344 687.738281 C 288.378906 693.035156 283.886719 696.902344 274.722656 701.484375 C 265.433594 706.125 238.207031 708.421875 224.285156 706.488281 C 218.039062 705.625 211.761719 704.328125 205.574219 702.875 C 198.261719 696.078125 205.511719 686.808594 211.796875 679.917969 C 217.128906 674.660156 224.921875 671.226562 231.214844 670.007812 C 241.253906 668.078125 262.691406 670.195312 279.210938 667.652344 C 285.347656 666.707031 290.742188 665.496094 294.175781 666.035156 C 297.613281 666.574219 300.242188 667.316406 299.371094 671.292969 " fill-opacity="1" fill-rule="nonzero"/><path fill="#1f1c63" d="M 205.574219 702.875 C 169.929688 694.421875 128.148438 676.277344 99.894531 652.960938 C 90.46875 645.183594 78.761719 634.921875 70.675781 624.546875 C 77.378906 627.238281 78.359375 616.894531 78.726562 608.210938 C 79.261719 608.796875 79.816406 609.378906 80.363281 609.964844 C 114.382812 646.429688 167.558594 671.9375 201.554688 679.582031 C 203.777344 679.175781 208.695312 679.445312 211.796875 679.917969 C 205.511719 686.808594 198.261719 696.078125 205.574219 702.875 " fill-opacity="1" fill-rule="nonzero"/><path fill="#ffffff" d="M 81.019531 577.886719 C 82.277344 588.441406 80.210938 598.777344 78.726562 608.210938 C 78.359375 616.894531 77.378906 627.238281 70.675781 624.546875 C 66.101562 618.667969 63.691406 614.039062 62.601562 611.03125 C 59.882812 603.898438 59.886719 593.492188 61.78125 588.261719 C 63.535156 583.722656 69.152344 568.765625 71.941406 562.742188 C 74.726562 556.722656 80.570312 548.636719 86.816406 543.515625 C 79.128906 552.949219 79.90625 568.574219 81.019531 577.886719 " fill-opacity="1" fill-rule="nonzero"/><path fill="#292585" d="M 78.292969 614.488281 C 78.179688 615.484375 78.046875 616.453125 77.878906 617.378906 C 96.882812 640.0625 127.832031 657.796875 145.097656 666.5625 C 167.371094 677.871094 190.253906 686.273438 204.953125 688.730469 C 205.339844 688.070312 205.761719 687.414062 206.214844 686.761719 C 176.121094 682.214844 107.296875 650.425781 78.292969 614.488281 Z M 76.597656 621.863281 C 76.25 622.625 75.835938 623.273438 75.359375 623.777344 C 87.339844 638.859375 104.550781 652.964844 126.585938 665.753906 C 158.785156 684.445312 184.875 692.742188 202.515625 696.40625 C 202.503906 695.691406 202.574219 694.96875 202.714844 694.242188 C 185.253906 690.597656 159.488281 682.359375 127.667969 663.890625 C 105.589844 651.070312 88.429688 636.945312 76.597656 621.863281 " fill-opacity="1" fill-rule="nonzero"/><path fill="#1f1c63" d="M 390.667969 515.539062 C 373.089844 542.554688 350.898438 578.140625 344.332031 580.984375 C 340.289062 582.738281 322.625 585.566406 297.949219 578.558594 C 273.28125 571.546875 238.765625 556.859375 218.269531 543.109375 C 197.777344 529.363281 173.644531 506.175781 169.058594 495.257812 C 164.476562 484.34375 166.765625 478.8125 174.585938 468.839844 C 198.144531 438.792969 248.667969 394.011719 278.265625 370.042969 C 320.335938 399.828125 379.386719 432.988281 429.675781 457.515625 C 421.835938 467.316406 404.253906 494.664062 390.667969 515.539062 Z M 280.921875 363.863281 C 267.769531 374.28125 216.566406 416.671875 181.460938 454.957031 C 175.53125 461.429688 163.53125 474.773438 161.105469 481.378906 C 158.679688 487.980469 161.105469 496.605469 171.890625 512.78125 C 182.441406 528.601562 231.855469 571.050781 304.378906 585.03125 C 327.730469 589.527344 341.230469 587.183594 348.78125 581.972656 C 356.332031 576.761719 381.855469 535.605469 393.003906 518.351562 C 402.953125 502.953125 429.195312 465.925781 437.109375 455.28125 C 381.855469 431.605469 296.972656 380.949219 280.921875 363.863281 " fill-opacity="1" fill-rule="nonzero"/><path fill="#292585" d="M 278.265625 370.042969 C 248.667969 394.011719 198.144531 438.792969 174.585938 468.839844 C 166.765625 478.8125 164.476562 484.34375 169.058594 495.257812 C 173.644531 506.175781 197.777344 529.363281 218.269531 543.109375 C 238.765625 556.859375 273.28125 571.546875 297.949219 578.558594 C 322.625 585.566406 340.289062 582.738281 344.332031 580.984375 C 350.898438 578.140625 373.089844 542.554688 390.667969 515.539062 C 404.253906 494.664062 421.835938 467.316406 429.675781 457.515625 C 379.386719 432.988281 320.335938 399.828125 278.265625 370.042969 " fill-opacity="1" fill-rule="nonzero"/><path fill="#e67300" d="M 341.375 585.457031 C 340.996094 585.574219 340.609375 585.6875 340.210938 585.796875 C 340.0625 586.5625 339.925781 587.328125 339.785156 588.074219 C 338.191406 596.730469 336.542969 605.679688 328.394531 616.695312 C 322.710938 624.378906 306.707031 636.773438 291.234375 648.757812 C 281.757812 656.09375 272.746094 663.074219 266.226562 668.847656 C 266.808594 668.824219 267.382812 668.796875 267.949219 668.765625 C 274.347656 663.195312 282.914062 656.5625 291.890625 649.609375 C 307.429688 637.582031 323.488281 625.136719 329.257812 617.335938 C 337.558594 606.121094 339.230469 597.046875 340.847656 588.269531 C 341.015625 587.347656 341.195312 586.402344 341.375 585.457031 " fill-opacity="1" fill-rule="nonzero"/><path fill="#ffa81c" d="M 214.253906 417.949219 C 214.742188 415.101562 214 412.65625 212.476562 410.074219 C 210.71875 407.105469 206.136719 402.121094 204.382812 401.175781 C 202.632812 400.234375 199.394531 402.121094 197.371094 404.144531 C 195.351562 406.164062 191.578125 412.859375 191.035156 418.25 C 190.53125 423.289062 192.148438 430.832031 195.992188 436.421875 C 201.800781 430.398438 207.925781 424.1875 214.253906 417.949219 " fill-opacity="1" fill-rule="nonzero"/><path fill="#1f1c63" d="M 625.800781 351.035156 C 635.6875 347.082031 642.160156 345.464844 647.195312 344.386719 C 652.226562 343.308594 656.183594 343.308594 659.777344 348.160156 C 663.375 353.011719 673.980469 371.523438 682.785156 388.417969 C 675.957031 392.191406 651.6875 409.984375 643.421875 415.734375 C 640.542969 400.816406 628.320312 358.582031 625.800781 351.035156 Z M 561.085938 472.527344 C 556.949219 447.183594 545.265625 408.007812 540.234375 393.8125 C 568.277344 375.65625 591.824219 363.433594 622.027344 351.753906 C 625.261719 357.503906 633.53125 388.777344 640.183594 417.890625 C 634.25 421.664062 573.128906 464.078125 561.085938 472.527344 Z M 418.351562 564.136719 C 417.003906 552.273438 413.5 530.167969 411.476562 519.65625 C 414.710938 513.996094 437.902344 480.835938 456.777344 459.273438 C 475.652344 437.707031 508.59375 412.949219 522.617188 404.050781 C 528.011719 421.84375 532.683594 448.085938 536.460938 487.710938 C 530.257812 491.753906 456.101562 541.222656 418.351562 564.136719 Z M 386.710938 583.230469 C 382.585938 585.648438 380.328125 584.824219 380.734375 582.398438 C 382.226562 573.441406 397.511719 542.902344 402.171875 535.023438 C 403.117188 544.636719 404.460938 561.308594 405.226562 571.726562 C 401.273438 574.066406 391.925781 580.171875 386.710938 583.230469 Z M 662.296875 345.824219 C 658.878906 341.332031 657.4375 338.8125 645.035156 341.152344 C 632.632812 343.488281 604.40625 354.628906 589.308594 361.636719 C 574.207031 368.648438 545.988281 384.824219 531.421875 393.449219 C 516.863281 402.074219 481.089844 428.136719 458.800781 451.679688 C 436.507812 475.21875 415.65625 507.210938 404.871094 524.28125 C 394.082031 541.355469 378.800781 572.269531 374.488281 585.03125 C 373.046875 589.285156 376.644531 593.113281 381.5 591.316406 C 386.351562 589.519531 449.632812 549.800781 466.886719 538.660156 C 484.144531 527.519531 583.554688 462.460938 605.667969 447.183594 C 627.777344 431.910156 682.25 393.449219 687.28125 389.496094 C 676.136719 365.953125 665.710938 350.320312 662.296875 345.824219 " fill-opacity="1" fill-rule="nonzero"/><path fill="#ffa81c" d="M 540.703125 512.378906 C 534.164062 506.929688 525.109375 515.785156 525.445312 523.789062 C 525.507812 525.300781 525.765625 526.464844 526.136719 527.375 L 543.167969 516.628906 C 542.664062 514.933594 541.769531 513.261719 540.703125 512.378906 " fill-opacity="1" fill-rule="nonzero"/><path fill="#fed645" d="M 526.136719 527.375 C 526.941406 529.34375 528.285156 530.109375 529.398438 530.574219 C 534.492188 532.703125 543.761719 526.769531 543.601562 519.183594 C 543.589844 518.394531 543.429688 517.507812 543.167969 516.628906 L 526.136719 527.375 " fill-opacity="1" fill-rule="nonzero"/><path fill="#cdcde6" d="M 524.796875 526.394531 C 523.816406 527.050781 523.917969 529.449219 525.558594 529.964844 C 527.128906 530.460938 530.523438 528.011719 533.089844 526.328125 C 548.671875 516.078125 550.207031 514.859375 550.277344 513.453125 C 550.34375 512.105469 549.6875 510.761719 548.660156 510.960938 L 524.796875 526.394531 " fill-opacity="1" fill-rule="nonzero"/><path fill="#6460c7" d="M 525.558594 529.964844 C 523.917969 529.449219 523.816406 527.050781 524.796875 526.394531 L 548.660156 510.960938 C 549.132812 510.871094 549.523438 511.109375 549.808594 511.519531 C 549.398438 510.757812 548.660156 510.050781 547.71875 510.289062 L 523.144531 525.550781 C 521.179688 527.113281 522.46875 530.402344 524.59375 530.402344 C 525.703125 530.402344 527.050781 530 528.335938 529.324219 C 527.265625 529.839844 526.242188 530.183594 525.558594 529.964844 " fill-opacity="1" fill-rule="nonzero"/><path fill="#ffa81c" d="M 683.078125 419.644531 C 676.539062 414.195312 667.480469 423.050781 667.824219 431.058594 C 667.886719 432.566406 668.144531 433.734375 668.515625 434.640625 L 685.542969 423.894531 C 685.042969 422.199219 684.144531 420.53125 683.078125 419.644531 " fill-opacity="1" fill-rule="nonzero"/><path fill="#fed645" d="M 668.515625 434.640625 C 669.316406 436.609375 670.664062 437.375 671.777344 437.839844 C 676.863281 439.96875 686.132812 434.035156 685.980469 426.449219 C 685.960938 425.660156 685.804688 424.773438 685.542969 423.894531 L 668.515625 434.640625 " fill-opacity="1" fill-rule="nonzero"/><path fill="#cdcde6" d="M 667.171875 433.660156 C 666.1875 434.316406 666.292969 436.714844 667.9375 437.230469 C 669.5 437.726562 672.902344 435.277344 675.460938 433.59375 C 691.050781 423.34375 692.582031 422.132812 692.652344 420.722656 C 692.722656 419.371094 692.058594 418.027344 691.035156 418.226562 L 667.171875 433.660156 " fill-opacity="1" fill-rule="nonzero"/><path fill="#6460c7" d="M 667.9375 437.230469 C 666.292969 436.714844 666.1875 434.316406 667.171875 433.660156 L 691.035156 418.226562 C 691.507812 418.136719 691.902344 418.375 692.179688 418.785156 C 691.777344 418.023438 691.035156 417.316406 690.089844 417.554688 L 665.519531 432.816406 C 663.558594 434.378906 664.847656 437.671875 666.96875 437.671875 C 668.082031 437.671875 669.429688 437.265625 670.707031 436.589844 C 669.644531 437.105469 668.613281 437.449219 667.9375 437.230469 " fill-opacity="1" fill-rule="nonzero"/><path fill="#fed645" d="M 407.386719 688.90625 C 412.394531 686.171875 432.738281 673.988281 439.925781 669.496094 C 447.113281 665 523.335938 619.355469 533.761719 612.707031 C 544.183594 606.054688 598.476562 572.628906 606.566406 567.058594 C 613.894531 562.011719 635.699219 549.339844 641.15625 544.890625 C 634.703125 545.015625 628.1875 545.648438 622.476562 548.097656 C 615.871094 550.925781 577.445312 575.726562 563.691406 584.621094 C 521.074219 612.1875 426.351562 670.632812 416.058594 677.089844 C 410.117188 680.8125 407.402344 685.746094 406.164062 689.363281 C 406.492188 689.351562 406.902344 689.171875 407.386719 688.90625 " fill-opacity="1" fill-rule="nonzero"/><path fill="#e67300" d="M 699.3125 413.460938 C 698.613281 410.394531 689.992188 393.28125 687.101562 389.121094 C 687.160156 389.246094 687.222656 389.371094 687.28125 389.496094 C 687.085938 389.648438 686.808594 389.859375 686.46875 390.113281 C 689.46875 394.671875 697.617188 410.875 698.261719 413.695312 C 698.90625 416.527344 695.640625 428.214844 691.84375 434.96875 C 686.101562 445.191406 678.574219 458.445312 675.324219 463.519531 C 673.179688 466.863281 668.566406 474.964844 664.488281 482.113281 C 661.558594 487.261719 658.789062 492.125 657.429688 494.351562 C 654.109375 499.792969 636.195312 543.953125 635.261719 547.132812 C 634.253906 550.574219 628.117188 558.445312 624.132812 561.410156 C 622.050781 562.960938 604.265625 574.183594 587.070312 585.03125 C 573.382812 593.667969 559.25 602.585938 553.261719 606.484375 C 553.34375 605.597656 553.453125 604.847656 553.550781 604.171875 C 553.734375 602.898438 553.890625 601.800781 553.847656 600.3125 C 553.816406 599.085938 553.496094 597.554688 553.179688 596.078125 C 552.828125 594.417969 552.464844 592.699219 552.566406 591.617188 C 552.808594 589.035156 554.324219 570.539062 554.660156 560.855469 C 554.945312 552.546875 555.640625 518.449219 554.519531 508.855469 C 553.683594 501.648438 550.984375 490.425781 549.367188 484.664062 C 549.050781 484.871094 548.734375 485.082031 548.417969 485.289062 C 550.023438 491.089844 552.644531 502.097656 553.449219 508.980469 C 554.488281 517.90625 553.964844 549.679688 553.582031 560.816406 C 553.234375 570.960938 551.628906 590.046875 551.492188 591.511719 C 551.375 592.761719 551.738281 594.480469 552.125 596.296875 C 552.429688 597.734375 552.742188 599.214844 552.769531 600.34375 C 552.808594 601.738281 552.660156 602.792969 552.484375 604.015625 C 552.355469 604.917969 552.210938 605.929688 552.117188 607.234375 C 545.691406 611.359375 425.820312 683.203125 411.808594 691.472656 C 411.890625 689.378906 411.78125 686.261719 411.691406 683.882812 C 411.644531 682.707031 411.609375 681.691406 411.609375 681.128906 C 411.609375 679.285156 407.976562 617.019531 407.292969 608.4375 C 406.691406 600.890625 404.742188 584.667969 402.746094 578.859375 C 402.429688 579.054688 402.117188 579.246094 401.808594 579.4375 C 403.65625 585.101562 405.59375 600.664062 406.21875 608.523438 C 406.902344 617.097656 410.53125 679.289062 410.53125 681.128906 C 410.53125 681.707031 410.566406 682.734375 410.609375 683.925781 C 410.714844 686.703125 410.855469 690.503906 410.667969 692.402344 L 410.5625 693.449219 L 411.476562 692.917969 C 420.175781 687.84375 549.625 610.265625 552.933594 607.988281 C 558.273438 604.480469 573.203125 595.054688 587.648438 585.945312 C 604.863281 575.082031 622.664062 563.851562 624.773438 562.277344 C 628.609375 559.421875 635.132812 551.414062 636.300781 547.4375 C 637.226562 544.269531 655.050781 500.324219 658.351562 494.914062 C 659.714844 492.675781 662.492188 487.804688 665.425781 482.644531 C 669.492188 475.511719 674.105469 467.421875 676.230469 464.101562 C 679.496094 459.007812 687.035156 445.734375 692.785156 435.496094 C 696.472656 428.933594 700.074219 416.78125 699.3125 413.460938 " fill-opacity="1" fill-rule="nonzero"/><path fill="#1f1c63" d="M 722.113281 332.707031 C 713.914062 322.359375 695.730469 306.410156 685.3125 299.492188 C 685.398438 299.75 685.464844 300 685.511719 300.238281 L 685.574219 300.492188 C 695.125 307.414062 710.816406 321.957031 714.285156 326.140625 C 717.171875 329.609375 723.855469 337.390625 722.730469 339.070312 C 721.882812 340.34375 718.691406 340.148438 714.378906 337.722656 C 710.066406 335.300781 696.144531 324.617188 692.644531 321.46875 C 688.410156 317.675781 686.921875 315.339844 686.035156 312.894531 C 685.722656 316.035156 685.070312 318.917969 684.070312 321.164062 C 686.609375 323.371094 689.105469 325.566406 691.371094 327.582031 C 698.652344 334.054688 716.855469 348.207031 721.167969 350.765625 C 725.484375 353.328125 728.042969 351.710938 729.257812 349.148438 C 730.46875 346.585938 728.445312 341.871094 722.113281 332.707031 " fill-opacity="1" fill-rule="nonzero"/><path fill="#403a9e" d="M 714.285156 326.140625 C 710.816406 321.957031 695.125 307.414062 685.582031 300.5625 C 686.269531 304.5625 686.421875 308.933594 686.035156 312.894531 C 686.921875 315.339844 688.410156 317.675781 692.644531 321.46875 C 696.144531 324.617188 710.066406 335.300781 714.378906 337.722656 C 718.691406 340.148438 721.882812 340.34375 722.730469 339.070312 C 723.855469 337.390625 717.171875 329.609375 714.285156 326.140625 " fill-opacity="1" fill-rule="nonzero"/><path fill="#403a9e" d="M 278.265625 370.042969 C 256.117188 387.980469 222.246094 417.574219 196.730469 443.925781 C 198.757812 444.640625 201.21875 445.667969 204.035156 446.953125 C 230.242188 429.125 269.683594 402.3125 298.789062 383.976562 C 291.609375 379.285156 284.734375 374.621094 278.265625 370.042969 " fill-opacity="1" fill-rule="nonzero"/><path fill="#2d288f" d="M 325.464844 400.761719 C 321.984375 406.195312 319.113281 414.796875 316.984375 419.535156 C 314.648438 424.746094 310.96875 440.53125 320.578125 448.8125 C 323.210938 451.082031 363.242188 473.972656 403.101562 496.421875 C 413.59375 480.335938 424.101562 464.488281 429.675781 457.515625 C 396.289062 441.230469 359.039062 421.140625 325.464844 400.761719 " fill-opacity="1" fill-rule="nonzero"/><path fill="#2d288f" d="M 522.617188 404.050781 C 508.59375 412.949219 475.652344 437.707031 456.777344 459.273438 C 444.214844 473.625 429.742188 493.105469 420.511719 506.207031 C 438.96875 516.550781 456.144531 526.105469 468.078125 532.636719 C 500.46875 511.636719 532.476562 490.308594 536.460938 487.710938 C 532.683594 448.085938 528.011719 421.84375 522.617188 404.050781 " fill-opacity="1" fill-rule="nonzero"/><path fill="#403a9e" d="M 411.476562 519.65625 C 413.5 530.167969 417.003906 552.273438 418.351562 564.136719 C 431.859375 555.933594 450.03125 544.339844 468.078125 532.636719 C 456.144531 526.105469 438.96875 516.550781 420.511719 506.207031 C 415.875 512.789062 412.558594 517.761719 411.476562 519.65625 " fill-opacity="1" fill-rule="nonzero"/><path fill="#403a9e" d="M 321.738281 449.628906 C 313.304688 451.597656 287.855469 457.636719 283.121094 458.777344 C 278.058594 460 262.734375 461.992188 260.636719 477.679688 C 272.640625 484.644531 283.203125 490.921875 289.316406 494.523438 C 307.644531 505.296875 330.007812 519.035156 334.054688 519.847656 C 338.09375 520.652344 344.160156 518.160156 348.46875 518.226562 C 356.957031 518.359375 363.898438 520.519531 377.535156 535.832031 C 381.996094 528.953125 386.464844 522 390.667969 515.539062 C 394.59375 509.515625 398.84375 502.949219 403.101562 496.421875 C 366.140625 475.605469 329.042969 454.414062 321.738281 449.628906 " fill-opacity="1" fill-rule="nonzero"/><path fill="#544fa8" d="M 169.058594 495.257812 C 173.644531 506.175781 197.777344 529.363281 218.269531 543.109375 C 238.765625 556.859375 273.28125 571.546875 297.949219 578.558594 C 322.625 585.566406 340.289062 582.738281 344.332031 580.984375 C 349.324219 578.820312 363.367188 557.707031 377.535156 535.832031 C 363.898438 520.519531 356.957031 518.359375 348.46875 518.226562 C 344.160156 518.160156 338.09375 520.652344 334.054688 519.847656 C 330.007812 519.035156 307.644531 505.296875 289.316406 494.523438 C 271.40625 483.984375 215.355469 450.464844 196.730469 443.925781 C 188.152344 452.785156 180.511719 461.277344 174.585938 468.839844 C 166.765625 478.8125 164.476562 484.34375 169.058594 495.257812 " fill-opacity="1" fill-rule="nonzero"/><path fill="#544fa8" d="M 402.171875 535.023438 C 397.511719 542.902344 382.226562 573.441406 380.734375 582.398438 C 380.328125 584.824219 382.585938 585.648438 386.710938 583.230469 C 391.925781 580.171875 401.273438 574.066406 405.226562 571.726562 C 404.460938 561.308594 403.117188 544.636719 402.171875 535.023438 " fill-opacity="1" fill-rule="nonzero"/><path fill="#544fa8" d="M 371.601562 516.433594 C 374.582031 518.34375 380.679688 523.113281 383.761719 526.207031 C 384.628906 524.863281 385.496094 523.527344 386.347656 522.207031 C 383.410156 518.746094 376.699219 513.21875 371.421875 510.417969 C 365.671875 507.363281 358.753906 505.476562 354.261719 508.078125 C 350.464844 510.285156 351.035156 515.640625 351.902344 518.429688 C 358.988281 519.207031 365.769531 522.621094 377.535156 535.832031 C 379.148438 533.351562 380.753906 530.863281 382.351562 528.390625 C 381.980469 527.945312 381.519531 527.40625 380.941406 526.757812 C 378.699219 524.246094 372.316406 523.167969 370.703125 523.167969 C 369.082031 523.167969 365.582031 521.640625 363.699219 520.832031 C 361.808594 520.023438 358.308594 518.5 357.679688 517.597656 C 357.046875 516.699219 355.359375 514.046875 357.046875 512.300781 C 359.652344 509.605469 368.097656 514.1875 371.601562 516.433594 " fill-opacity="1" fill-rule="nonzero"/><path fill="#262278" d="M 298.789062 383.976562 C 269.683594 402.3125 230.242188 429.125 204.035156 446.953125 C 218.257812 453.449219 241.3125 466.460938 260.636719 477.679688 C 262.734375 461.992188 278.058594 460 283.121094 458.777344 C 287.855469 457.636719 313.304688 451.597656 321.738281 449.628906 C 321.167969 449.253906 320.773438 448.980469 320.578125 448.8125 C 310.96875 440.53125 314.648438 424.746094 316.984375 419.535156 C 319.113281 414.796875 321.984375 406.195312 325.464844 400.761719 C 315.046875 394.433594 298.789062 383.976562 298.789062 383.976562 " fill-opacity="1" fill-rule="nonzero"/><path fill="#2d288f" d="M 540.234375 393.8125 C 545.265625 408.007812 556.949219 447.183594 561.085938 472.527344 C 573.128906 464.078125 634.25 421.664062 640.183594 417.890625 C 633.53125 388.777344 625.261719 357.503906 622.027344 351.753906 C 591.824219 363.433594 568.277344 375.65625 540.234375 393.8125 Z M 665.335938 385.589844 C 663.804688 382.585938 657.609375 377.6875 655.992188 376.789062 C 656.90625 376.222656 663.085938 368.347656 654.824219 361.882812 C 649.867188 358.003906 640.3125 353.859375 629.90625 349.457031 C 628.601562 349.9375 627.242188 350.460938 625.800781 351.035156 C 628.320312 358.582031 640.542969 400.816406 643.421875 415.734375 C 647.847656 412.652344 656.863281 406.121094 665.335938 400.136719 C 666.882812 394.472656 667.34375 389.539062 665.335938 385.589844 " fill-opacity="1" fill-rule="nonzero"/><path fill="#403a9e" d="M 665.289062 400.167969 C 672.652344 394.96875 679.605469 390.175781 682.785156 388.417969 C 673.980469 371.523438 663.375 353.011719 659.777344 348.160156 C 657.183594 344.660156 654.402344 343.691406 651.164062 343.824219 L 646.84375 344.464844 C 642.605469 345.378906 637.332031 346.707031 629.90625 349.457031 C 640.316406 353.859375 649.867188 358.003906 654.824219 361.882812 C 663.085938 368.347656 656.90625 376.222656 655.992188 376.789062 C 657.609375 377.6875 663.804688 382.585938 665.335938 385.589844 C 667.34375 389.539062 666.882812 394.472656 665.335938 400.136719 L 665.289062 400.167969 " fill-opacity="1" fill-rule="nonzero"/><path fill="#ffa81c" d="M 416.734375 564.089844 C 420.148438 551.511719 424.425781 543.570312 430.753906 538.03125 C 431.476562 537.402344 435.335938 537.582031 441.632812 539.828125 C 447.925781 542.074219 458.257812 547.109375 461.40625 550.792969 C 464.550781 554.476562 464.910156 557.351562 464.910156 559.507812 C 452.957031 569.121094 430.214844 565.710938 416.734375 564.089844 " fill-opacity="1" fill-rule="nonzero"/><path fill="#292585" d="M 464.910156 559.507812 C 452.957031 569.121094 430.214844 565.710938 416.734375 564.089844 C 417.515625 561.207031 418.347656 558.582031 419.234375 556.160156 C 417.820312 555.785156 416.070312 555.410156 413.765625 555.914062 C 410.261719 556.675781 408.238281 559.371094 407.746094 561.035156 C 407.335938 562.425781 407.296875 564.8125 409.359375 566.425781 C 410.800781 566.515625 417.273438 567.953125 424.191406 568.671875 C 431.113281 569.390625 444.777344 569.933594 450.082031 569.390625 C 455.382812 568.855469 458.980469 566.964844 462.214844 564.898438 C 465.453125 562.835938 464.910156 561.484375 464.910156 559.507812 " fill-opacity="1" fill-rule="nonzero"/><path fill="#eb9a1c" d="M 492.644531 367.21875 C 469.8125 367.21875 446.988281 362.191406 429.570312 352.136719 C 394.730469 332.03125 394.730469 299.429688 429.570312 279.324219 C 446.988281 269.269531 469.8125 264.242188 492.644531 264.242188 C 515.472656 264.242188 538.304688 269.269531 555.722656 279.324219 C 590.554688 299.429688 590.554688 332.03125 555.722656 352.136719 C 538.304688 362.191406 515.472656 367.21875 492.644531 367.21875 " fill-opacity="1" fill-rule="nonzero"/><path fill="#423eaf" d="M 507.507812 186.609375 C 478.773438 170.027344 455.484375 129.695312 455.484375 96.527344 C 455.484375 89.589844 456.554688 83.574219 458.429688 78.457031 C 438.113281 74.90625 423.507812 88.726562 423.507812 114.96875 C 423.507812 148.136719 446.800781 188.464844 475.53125 205.050781 C 498.253906 218.164062 517.519531 212.441406 524.609375 193.09375 C 519.246094 192.15625 513.503906 190.074219 507.507812 186.609375 " fill-opacity="1" fill-rule="nonzero"/><path fill="#423eaf" d="M 475.53125 58.449219 C 454.789062 46.472656 436.003906 45.335938 422.40625 53.179688 L 454.378906 34.742188 C 467.976562 26.898438 486.761719 28.035156 507.507812 40.011719 C 549.011719 63.964844 582.65625 122.222656 582.65625 170.132812 C 582.65625 213.6875 507.507812 310.554688 507.507812 310.554688 L 475.53125 328.992188 C 475.53125 328.992188 550.683594 232.125 550.683594 188.570312 C 550.683594 140.660156 517.039062 82.402344 475.53125 58.449219 " fill-opacity="1" fill-rule="nonzero"/><path fill="#8a86f2" d="M 475.53125 205.050781 C 446.800781 188.464844 423.507812 148.136719 423.507812 114.96875 C 423.507812 81.800781 446.804688 68.355469 475.53125 84.9375 C 504.265625 101.523438 527.554688 141.851562 527.554688 175.019531 C 527.554688 208.1875 504.265625 221.632812 475.53125 205.050781 Z M 475.53125 58.449219 C 434.03125 34.492188 400.382812 53.914062 400.382812 101.820312 C 400.382812 146.875 475.53125 328.992188 475.53125 328.992188 C 475.53125 328.992188 550.683594 232.125 550.683594 188.570312 C 550.683594 140.660156 517.039062 82.402344 475.53125 58.449219 " fill-opacity="1" fill-rule="nonzero"/></svg>